<svg xmlns="http://www.w3.org/2000/svg" width="109" height="60" viewBox="0 0 109 60" fill="none">
  <path d="M8.76906 8.02175V9.89251H1.6012V0.19458H3.62162V8.02292H8.76906V8.02175Z" fill="white"/>
  <path d="M10.1019 9.89202V0.194092H12.1224V9.89202H10.1019Z" fill="white"/>
  <path d="M21.1608 6.49823L18.9743 6.48427V4.61352H23.1394V10.5851L21.7147 9.35261C20.9123 9.8514 20.0263 10.1014 19.0579 10.1014C17.6645 10.1014 16.4778 9.60724 15.4955 8.61896C14.5131 7.63068 14.022 6.43893 14.022 5.04488C14.022 3.65082 14.5131 2.4614 15.4955 1.47777C16.4767 0.491814 17.6645 0 19.0568 0C20.4769 0 21.6857 0.508092 22.6819 1.52428L21.1875 2.99274C20.5884 2.31839 19.8499 1.98121 18.9732 1.98121C18.1429 1.98121 17.4323 2.28351 16.8424 2.88926C16.2514 3.49386 15.9565 4.2124 15.9565 5.04371C15.9565 5.87503 16.2514 6.59357 16.8424 7.19816C17.4323 7.80276 18.1429 8.10505 18.9732 8.10505C19.822 8.10505 20.55 7.78648 21.1596 7.14933V6.49823H21.1608Z" fill="white"/>
  <path d="M31.7412 9.89202L31.0491 8.04917H27.1198L26.4277 9.89202H24.3248L28.4481 0.194092H29.7068L33.8441 9.89202H31.7412ZM27.6179 6.38654H30.551L29.0984 2.59038L27.6179 6.38654Z" fill="white"/>
  <path d="M10.2542 38.2533C10.1683 38.2115 9.57031 37.601 8.45908 36.4244C7.34785 35.2489 6.79281 34.6385 6.79281 34.5955L21.6 19.769H1.60125V13.7998H33.8433V15.4683L18.9084 30.3599C23.2674 30.6168 26.8136 31.89 29.5493 34.1781C32.2838 36.4686 33.6517 39.6881 33.6517 43.8377C33.6517 48.543 32.0272 52.3636 28.7806 55.2936C25.5328 58.2247 21.7718 59.6897 17.4987 59.6897C10.49 59.6897 4.65743 56.4167 0 49.8708L4.99997 46.084C6.41079 48.607 8.21524 50.5231 10.4168 51.8276C12.6172 53.1321 14.914 53.7856 17.3072 53.7856C19.9128 53.7856 22.1562 52.8438 24.0373 50.9614C25.9172 49.079 26.8577 46.7025 26.8577 43.8377C26.8577 41.5274 25.9915 39.602 24.2614 38.0615C22.5301 36.5209 20.3831 35.7303 17.8192 35.6861C16.6221 35.6861 15.2333 35.9221 13.653 36.393C12.0703 36.8651 10.9382 37.4836 10.2542 38.2533Z" fill="white"/>
  <path d="M62.1576 0.194092L50.4275 14.9555C51.7513 14.6985 53.1621 14.5706 54.6576 14.5706C59.2291 14.6555 62.9042 16.1961 65.6829 19.1911C68.4604 22.1874 69.8492 25.9533 69.8492 30.4866C69.8492 35.364 68.2677 39.3113 65.1058 42.3297C61.944 45.3457 57.8845 46.8537 52.9275 46.8537C48.226 46.8537 44.2315 45.2608 40.942 42.0727C37.6501 38.8846 36.0059 35.0234 36.0059 30.4866C36.0059 26.08 37.6721 21.7363 41.0058 17.4587L54.4661 0.194092H62.1576ZM52.9914 40.7566C56.0685 40.7566 58.493 39.838 60.2661 37.9975C62.0392 36.157 62.9263 33.6549 62.9263 30.4878C62.9263 27.4078 62.0392 24.9464 60.2661 23.1071C58.493 21.2677 56.0673 20.348 52.9914 20.348C50.042 20.348 47.628 21.2898 45.748 23.171C43.8669 25.0545 42.9276 27.4939 42.9276 30.4878C42.9276 33.527 43.8669 35.9977 45.748 37.901C47.6291 39.8055 50.0432 40.7566 52.9914 40.7566Z" fill="white"/>
  <path d="M79.418 41.8799C76.0622 38.5639 74.3855 34.5526 74.3855 29.8461C74.3855 25.1407 76.0622 21.1283 79.418 17.8123C82.7714 14.4964 86.8425 12.8384 91.6288 12.8384C96.414 12.8384 100.506 14.4964 103.905 17.8123C107.301 21.1295 109 25.1407 109 29.8461C109 34.5538 107.301 38.565 103.905 41.8799C100.507 45.197 96.414 46.8538 91.6288 46.8538C86.8425 46.855 82.7714 45.197 79.418 41.8799ZM84.0325 21.9201C81.9168 24.1234 80.8602 26.7661 80.8602 29.8461C80.8602 32.9272 81.918 35.57 84.0325 37.7721C86.1481 39.9777 88.7224 41.0776 91.7565 41.0776C94.7477 41.0776 97.2906 39.9765 99.3842 37.7721C101.478 35.57 102.525 32.9272 102.525 29.8461C102.525 26.7661 101.478 24.1234 99.3842 21.9201C97.2895 19.7168 94.7465 18.6146 91.7565 18.6146C88.7224 18.6146 86.1481 19.7156 84.0325 21.9201Z" fill="white"/>
</svg>