<svg xmlns="http://www.w3.org/2000/svg" width="70" height="66" viewBox="0 0 70 66" fill="none"><g filter="url(#a)"><path d="M31.546 27.481c-.596-.65-1.325-.626-2.12-.018-.647.495-1.244 1.058-1.852 1.604L25.979 30.5c-1.427 1.202-5.795 4.906-7.501 6.257a.973.973 0 0 1-.96.143c-2.145-.844-5.494-2.16-5.755-2.268-.99-.41-1.745-.211-2.345.61-.593.814-.578 1.537.192 2.358.32.342 5.983 6.449 6.85 6.938.245.14 1.022.564 2.016.438 1.546-.198 2.448-1.896 2.88-2.334 1.328-1.716 8.29-10.65 10.096-13.016.673-.883.751-1.429.094-2.146Z" fill="#FFBE26"/></g><defs><filter id="a" x=".273" y=".818" width="69.546" height="64.546" filterUnits="userSpaceOnUse" color-interpolation-filters="sRGB"><feFlood flood-opacity="0" result="BackgroundImageFix"/><feColorMatrix in="SourceAlpha" values="0 0 0 0 0 0 0 0 0 0 0 0 0 0 0 0 0 0 127 0" result="hardAlpha"/><feOffset dx="14.546" dy="-2.909"/><feGaussianBlur stdDeviation="11.636"/><feColorMatrix values="0 0 0 0 1 0 0 0 0 1 0 0 0 0 1 0 0 0 1 0"/><feBlend in2="BackgroundImageFix" result="effect1_dropShadow_1410_282"/><feBlend in="SourceGraphic" in2="effect1_dropShadow_1410_282" result="shape"/></filter></defs></svg>