<svg xmlns="http://www.w3.org/2000/svg" width="109" height="60" viewBox="0 0 109 60" fill="none"><path d="M8.77 8.022v1.87H1.6V.196h2.02v7.828h5.15v-.001Zm1.332 1.87V.194h2.02v9.698h-2.02ZM21.16 6.498l-2.186-.014v-1.87h4.165v5.971l-1.424-1.232a4.935 4.935 0 0 1-2.657.748c-1.393 0-2.58-.494-3.563-1.482-.982-.988-1.473-2.18-1.473-3.574 0-1.394.491-2.584 1.473-3.567C16.477.492 17.666 0 19.058 0c1.42 0 2.629.508 3.625 1.524l-1.494 1.469c-.6-.675-1.338-1.012-2.215-1.012-.83 0-1.54.303-2.13.908a2.974 2.974 0 0 0-.886 2.155c0 .831.294 1.55.885 2.154.59.605 1.3.907 2.131.907.849 0 1.577-.319 2.187-.956V6.5Zm10.581 3.394-.692-1.843h-3.93l-.691 1.843h-2.103L28.448.194h1.259l4.137 9.698h-2.103Zm-4.123-3.505h2.933L29.098 2.59l-1.48 3.797ZM10.254 38.253c-.086-.041-.684-.652-1.795-1.829-1.111-1.175-1.666-1.785-1.666-1.828L21.6 19.769H1.601v-5.97h32.242v1.67l-14.935 14.89c4.36.258 7.906 1.531 10.641 3.82 2.735 2.29 4.103 5.51 4.103 9.659 0 4.705-1.625 8.526-4.871 11.456-3.248 2.93-7.01 4.396-11.282 4.396-7.009 0-12.842-3.273-17.499-9.82l5-3.786c1.41 2.523 3.215 4.44 5.417 5.744 2.2 1.304 4.497 1.958 6.89 1.958 2.606 0 4.85-.942 6.73-2.825 1.88-1.882 2.82-4.258 2.82-7.123 0-2.31-.866-4.236-2.596-5.776-1.73-1.541-3.878-2.332-6.442-2.376-1.197 0-2.586.236-4.166.707-1.583.472-2.715 1.09-3.399 1.86ZM62.158.194l-11.73 14.762a22.187 22.187 0 0 1 4.23-.385c4.571.085 8.246 1.625 11.025 4.62 2.777 2.996 4.166 6.762 4.166 11.296 0 4.877-1.581 8.824-4.743 11.843-3.162 3.016-7.221 4.524-12.178 4.524-4.702 0-8.697-1.593-11.986-4.781-3.292-3.188-4.936-7.05-4.936-11.586 0-4.407 1.666-8.75 5-13.028L54.466.194h7.692ZM52.99 40.757c3.078 0 5.502-.919 7.275-2.76 1.773-1.84 2.66-4.342 2.66-7.51 0-3.08-.887-5.54-2.66-7.38-1.773-1.84-4.199-2.759-7.275-2.759-2.949 0-5.363.942-7.243 2.823-1.881 1.884-2.82 4.323-2.82 7.317 0 3.039.939 5.51 2.82 7.413 1.881 1.904 4.295 2.856 7.243 2.856Zm26.428 1.123c-3.356-3.316-5.033-7.327-5.033-12.034 0-4.705 1.677-8.718 5.033-12.034 3.353-3.316 7.424-4.974 12.21-4.974 4.786 0 8.878 1.658 12.277 4.974C107.301 21.13 109 25.141 109 29.846c0 4.708-1.699 8.719-5.095 12.034-3.398 3.317-7.491 4.974-12.276 4.974-4.787.001-8.858-1.657-12.211-4.974Zm4.614-19.96c-2.115 2.203-3.172 4.846-3.172 7.926 0 3.081 1.058 5.724 3.172 7.926 2.116 2.206 4.69 3.306 7.725 3.306 2.99 0 5.534-1.102 7.627-3.306 2.094-2.202 3.141-4.845 3.141-7.926 0-3.08-1.047-5.723-3.14-7.926-2.096-2.203-4.639-3.305-7.629-3.305-3.034 0-5.608 1.1-7.724 3.305Z" fill="#fff"/></svg>